<svg width="50.000000" height="50.000000" viewBox="0 0 50 50" fill="none" xmlns="http://www.w3.org/2000/svg" xmlns:xlink="http://www.w3.org/1999/xlink">
	<desc>
			Created with Pixso.
	</desc>
	<defs>
		<clipPath id="clip5_9">
			<rect id="css-16-svgrepo-com" rx="-0.500000" width="49.000000" height="49.000000" transform="translate(0.500000 0.500000)" fill="white" fill-opacity="0"/>
		</clipPath>
	</defs>
	<g clip-path="url(#clip5_9)">
		<path id="path" d="M9.46 4.68C9.03 4.68 8.68 5.03 8.68 5.46L8.68 35.31C8.68 35.59 8.83 35.85 9.07 35.99L24.26 44.74C24.49 44.88 24.78 44.88 25.02 44.75L41.09 35.95C41.34 35.81 41.5 35.55 41.5 35.26L41.5 5.46C41.5 5.03 41.15 4.68 40.71 4.68L9.46 4.68ZM4 5.46C4 2.44 6.44 0 9.46 0L40.71 0C43.73 0 46.18 2.44 46.18 5.46L46.18 35.26C46.18 37.26 45.09 39.1 43.34 40.06L27.28 48.86C25.6 49.78 23.57 49.76 21.91 48.8L6.73 40.05C5.04 39.07 4 37.26 4 35.31L4 5.46ZM15.71 13.28C15.71 11.98 16.76 10.93 18.06 10.93L32.48 10.93C33.78 10.93 34.82 11.98 34.82 13.28L34.82 32.33C34.82 33.21 34.32 34.03 33.53 34.42L26.32 38.03C25.66 38.36 24.88 38.36 24.22 38.03L17.01 34.42C16.22 34.03 15.71 33.21 15.71 32.33L15.71 30.52C15.71 29.23 16.76 28.18 18.06 28.18C19.35 28.18 20.4 29.23 20.4 30.52L20.4 30.88L25.27 33.31L30.14 30.88L30.14 25.66L21.96 25.66C20.67 25.66 19.62 24.61 19.62 23.31C19.62 22.02 20.67 20.97 21.96 20.97L30.14 20.97L30.14 15.62L18.06 15.62C16.76 15.62 15.71 14.57 15.71 13.28Z" fill="#FFFFFF" fill-opacity="1.000000" fill-rule="nonzero"/>
	</g>
	<rect id="css-16-svgrepo-com" rx="-0.500000" width="49.000000" height="49.000000" transform="translate(0.500000 0.500000)" stroke="#FFFFFF" stroke-opacity="0" stroke-width="1.000000"/>
</svg>
