<svg width="50.000000" height="50.000000" viewBox="0 0 50 50" fill="none" xmlns="http://www.w3.org/2000/svg" xmlns:xlink="http://www.w3.org/1999/xlink">
	<desc>
			Created with Pixso.
	</desc>
	<defs>
		<clipPath id="clip5_26">
			<rect id="handshake-svgrepo-com (1)" rx="-0.500000" width="49.000000" height="49.000000" transform="translate(0.500000 0.500000)" fill="white" fill-opacity="0"/>
		</clipPath>
	</defs>
	<g clip-path="url(#clip5_26)">
		<rect id="rect" width="50.000000" height="50.000000" fill="#000000" fill-opacity="0"/>
		<path id="path" d="M45.83 31.25L44.58 31.25L27.5 14.16C27.1 13.73 26.62 13.52 26.04 13.52C25.46 13.52 24.97 13.73 24.58 14.16L18.43 20.31C17.95 20.78 17.46 20.78 16.97 20.31L15.41 18.75L17.08 17.08L26.04 8.12L35 17.08C35.4 17.49 35.88 17.7 36.45 17.7L45.83 17.7C46.4 17.7 46.89 17.5 47.3 17.09C47.71 16.69 47.91 16.2 47.91 15.62C47.91 15.04 47.71 14.55 47.3 14.15C46.89 13.74 46.4 13.54 45.83 13.54L37.29 13.54L27.5 3.75C27.1 3.32 26.62 3.1 26.04 3.1C25.46 3.1 24.97 3.32 24.58 3.75L14.79 13.54L4.16 13.54C3.59 13.54 3.1 13.74 2.69 14.15C2.28 14.55 2.08 15.04 2.08 15.62C2.08 16.2 2.28 16.69 2.69 17.09C3.1 17.5 3.59 17.7 4.16 17.7L11.04 17.7C10.54 18.95 10.78 20.02 11.77 20.93L14.06 23.22C14.54 23.7 15.1 24.07 15.73 24.33C16.37 24.58 17.02 24.71 17.7 24.71C18.39 24.71 19.04 24.58 19.67 24.33C20.3 24.07 20.86 23.7 21.35 23.22L26.04 18.54L42.29 34.79C42.69 35.2 43.17 35.4 43.75 35.41L45.83 35.41C46.4 35.41 46.89 35.21 47.3 34.8C47.71 34.39 47.91 33.9 47.91 33.33C47.91 32.75 47.71 32.26 47.3 31.86C46.89 31.45 46.4 31.25 45.83 31.25Z" fill="#FFFFFF" fill-opacity="1.000000" fill-rule="nonzero"/>
		<path id="path" d="M32.7 28.75C32.29 28.43 31.82 28.3 31.31 28.33C30.79 28.37 30.35 28.57 29.98 28.94C29.61 29.31 29.41 29.75 29.38 30.26C29.34 30.78 29.48 31.25 29.79 31.66L37.08 38.95C37.47 39.38 37.96 39.59 38.54 39.59C39.12 39.59 39.6 39.38 40 38.95C40.42 38.56 40.64 38.08 40.64 37.5C40.64 36.91 40.42 36.43 40 36.04L32.7 28.75Z" fill="#FFFFFF" fill-opacity="1.000000" fill-rule="nonzero"/>
		<path id="path" d="M26.45 31.87C26.04 31.56 25.57 31.42 25.06 31.46C24.54 31.5 24.1 31.7 23.73 32.06C23.36 32.43 23.16 32.87 23.13 33.39C23.09 33.91 23.23 34.37 23.54 34.79L30.83 42.08C31.22 42.51 31.71 42.72 32.29 42.72C32.87 42.72 33.35 42.51 33.75 42.08C34.17 41.69 34.39 41.2 34.39 40.62C34.39 40.04 34.17 39.55 33.75 39.16L26.45 31.87Z" fill="#FFFFFF" fill-opacity="1.000000" fill-rule="nonzero"/>
		<path id="path" d="M19.16 33.95C18.75 33.64 18.28 33.51 17.76 33.54C17.25 33.58 16.81 33.78 16.44 34.15C16.07 34.51 15.87 34.96 15.83 35.47C15.8 35.99 15.93 36.46 16.25 36.87L23.54 44.16C23.93 44.59 24.42 44.8 25 44.8C25.58 44.8 26.06 44.59 26.45 44.16C26.88 43.77 27.09 43.28 27.09 42.7C27.09 42.12 26.88 41.64 26.45 41.25L19.16 33.95Z" fill="#FFFFFF" fill-opacity="1.000000" fill-rule="nonzero"/>
		<path id="path" d="M7.7 31.87C7.3 31.46 6.82 31.25 6.25 31.25L4.16 31.25C3.59 31.25 3.1 31.45 2.69 31.86C2.28 32.26 2.08 32.75 2.08 33.33C2.08 33.9 2.28 34.39 2.69 34.8C3.1 35.21 3.59 35.41 4.16 35.41L5.41 35.41L16.25 46.25C16.64 46.67 17.12 46.89 17.7 46.89C18.28 46.89 18.77 46.67 19.16 46.25C19.59 45.85 19.8 45.37 19.8 44.79C19.8 44.21 19.59 43.72 19.16 43.33L7.7 31.87Z" fill="#FFFFFF" fill-opacity="1.000000" fill-rule="nonzero"/>
	</g>
	<rect id="handshake-svgrepo-com (1)" rx="-0.500000" width="49.000000" height="49.000000" transform="translate(0.500000 0.500000)" stroke="#FFFFFF" stroke-opacity="0" stroke-width="1.000000"/>
</svg>
