<svg width="50.000000" height="50.000000" viewBox="0 0 50 50" fill="none" xmlns="http://www.w3.org/2000/svg" xmlns:xlink="http://www.w3.org/1999/xlink">
	<desc>
			Created with Pixso.
	</desc>
	<defs>
		<clipPath id="clip5_7">
			<rect id="html-16-svgrepo-com" rx="-0.500000" width="49.000000" height="49.000000" transform="translate(0.500000 0.500000)" fill="white" fill-opacity="0"/>
		</clipPath>
	</defs>
	<g clip-path="url(#clip5_7)">
		<path id="path" d="M9.37 4.68C8.94 4.68 8.59 5.03 8.59 5.46L8.59 35.31C8.59 35.59 8.74 35.85 8.98 35.99L24.16 44.74C24.4 44.88 24.69 44.88 24.93 44.75L41 35.95C41.25 35.81 41.4 35.55 41.4 35.26L41.4 5.46C41.4 5.03 41.05 4.68 40.62 4.68L9.37 4.68ZM3.9 5.46C3.9 2.44 6.35 0 9.37 0L40.62 0C43.64 0 46.09 2.44 46.09 5.46L46.09 35.26C46.09 37.26 45 39.1 43.25 40.06L27.18 48.86C25.51 49.78 23.48 49.76 21.82 48.8L6.64 40.05C4.94 39.07 3.9 37.26 3.9 35.31L3.9 5.46ZM15.62 13.28C15.62 11.98 16.67 10.93 17.96 10.93L32.39 10.93C33.68 10.93 34.73 11.98 34.73 13.28C34.73 14.57 33.68 15.62 32.39 15.62L20.31 15.62L20.31 20.97L32.39 20.97C33.68 20.97 34.73 22.02 34.73 23.31L34.73 32.33C34.73 33.21 34.23 34.03 33.43 34.42L26.22 38.03C25.56 38.36 24.79 38.36 24.13 38.03L16.92 34.42C16.12 34.03 15.62 33.21 15.62 32.33L15.62 30.52C15.62 29.23 16.67 28.18 17.96 28.18C19.26 28.18 20.31 29.23 20.31 30.52L20.31 30.88L25.18 33.31L30.04 30.88L30.04 25.66L17.96 25.66C16.67 25.66 15.62 24.61 15.62 23.31L15.62 13.28Z" fill="#FFFAFA" fill-opacity="1.000000" fill-rule="nonzero"/>
	</g>
	<rect id="html-16-svgrepo-com" rx="-0.500000" width="49.000000" height="49.000000" transform="translate(0.500000 0.500000)" stroke="#FFFFFF" stroke-opacity="0" stroke-width="1.000000"/>
</svg>
