<svg width="50.000000" height="50.000000" viewBox="0 0 50 50" fill="none" xmlns="http://www.w3.org/2000/svg" xmlns:xlink="http://www.w3.org/1999/xlink">
	<desc>
			Created with Pixso.
	</desc>
	<defs>
		<clipPath id="clip5_13">
			<rect id="js02-svgrepo-com" rx="-0.500000" width="49.000000" height="49.000000" transform="translate(0.500000 0.500000)" fill="white" fill-opacity="0"/>
		</clipPath>
	</defs>
	<g clip-path="url(#clip5_13)">
		<path id="path" d="M21.3 25.14C21.3 31.46 21.75 36.77 18.64 39.92C16.88 41.69 14.11 42.73 10.71 42.73C5.12 42.73 2.02 40.01 0.04 36.24C1.95 35.02 3.9 33.85 5.88 32.71C6.69 34.97 9.43 37.52 12.51 35.95C14.47 34.96 14.24 31.95 14.24 28.67C14.24 21.88 14.24 14.05 14.24 7.92C14.23 7.82 14.23 7.72 14.31 7.7C16.64 7.7 18.97 7.7 21.3 7.7C21.3 13.16 21.3 19.34 21.3 25.14ZM39.03 21.04C37.25 20.27 35.03 19.37 34.49 17.72C33.88 15.87 34.92 14.35 36.08 13.83C38.62 12.69 41.65 14.57 42.27 16.5C44.19 15.36 46.09 14.21 47.82 12.89C45.79 9.52 42.81 7.1 37.37 7.27C34.38 7.37 32.13 8.31 30.46 9.72C28.82 11.1 27.55 13.03 27.36 15.78C26.77 24 32.92 26.1 38.17 28.39C39.82 29.11 41.66 29.84 42.42 31.27C43.99 34.23 41.21 36.18 38.81 36.39C34.97 36.72 32.38 34.47 30.89 32.13C29.02 33.29 26.99 34.29 25.19 35.52C27.69 39.91 31.78 42.75 38.17 42.73C44.68 42.71 49.52 39.57 49.91 33.65C50.45 25.6 44.42 23.35 39.03 21.04Z" fill="#FFFFFF" fill-opacity="1.000000" fill-rule="nonzero"/>
	</g>
	<rect id="js02-svgrepo-com" rx="-0.500000" width="49.000000" height="49.000000" transform="translate(0.500000 0.500000)" stroke="#FFFFFF" stroke-opacity="0" stroke-width="1.000000"/>
</svg>
