<svg width="50.000000" height="50.000000" viewBox="0 0 50 50" fill="none" xmlns="http://www.w3.org/2000/svg" xmlns:xlink="http://www.w3.org/1999/xlink">
	<desc>
			Created with Pixso.
	</desc>
	<defs>
		<clipPath id="clip5_41">
			<rect id="language-svgrepo-com" rx="-0.500000" width="49.000000" height="49.000000" transform="translate(0.500000 0.500000)" fill="white" fill-opacity="0"/>
		</clipPath>
	</defs>
	<g clip-path="url(#clip5_41)">
		<path id="path" d="M24.97 4.16C13.47 4.16 4.16 13.5 4.16 25C4.16 36.5 13.47 45.83 24.97 45.83C36.5 45.83 45.83 36.5 45.83 25C45.83 13.5 36.5 4.16 24.97 4.16ZM39.41 16.66L33.27 16.66C32.6 14.06 31.64 11.56 30.39 9.25C34.22 10.56 37.41 13.22 39.41 16.66ZM25 8.41C26.72 10.91 28.08 13.68 28.97 16.66L21.02 16.66C21.91 13.68 23.27 10.91 25 8.41ZM8.87 29.16C8.54 27.83 8.33 26.43 8.33 25C8.33 23.56 8.54 22.16 8.87 20.83L15.91 20.83C15.75 22.2 15.62 23.58 15.62 25C15.62 26.41 15.75 27.79 15.91 29.16L8.87 29.16ZM10.58 33.33L16.72 33.33C17.39 35.93 18.35 38.43 19.6 40.75C15.77 39.43 12.58 36.79 10.58 33.33ZM16.72 16.66L10.58 16.66C12.58 13.2 15.77 10.56 19.6 9.25C18.35 11.56 17.39 14.06 16.72 16.66ZM25 41.58C23.27 39.08 21.91 36.31 21.02 33.33L28.97 33.33C28.08 36.31 26.72 39.08 25 41.58ZM29.87 29.16L20.12 29.16C19.93 27.79 19.79 26.41 19.79 25C19.79 23.58 19.93 22.18 20.12 20.83L29.87 20.83C30.06 22.18 30.2 23.58 30.2 25C30.2 26.41 30.06 27.79 29.87 29.16ZM30.39 40.75C31.64 38.43 32.6 35.93 33.27 33.33L39.41 33.33C37.41 36.77 34.22 39.43 30.39 40.75ZM34.08 29.16C34.25 27.79 34.37 26.41 34.37 25C34.37 23.58 34.25 22.2 34.08 20.83L41.12 20.83C41.45 22.16 41.66 23.56 41.66 25C41.66 26.43 41.45 27.83 41.12 29.16L34.08 29.16Z" fill="#FFFFFF" fill-opacity="1.000000" fill-rule="nonzero"/>
	</g>
	<rect id="language-svgrepo-com" rx="-0.500000" width="49.000000" height="49.000000" transform="translate(0.500000 0.500000)" stroke="#FFFFFF" stroke-opacity="0" stroke-width="1.000000"/>
</svg>
