<svg width="50.000000" height="50.000000" viewBox="0 0 50 50" fill="none" xmlns="http://www.w3.org/2000/svg" xmlns:xlink="http://www.w3.org/1999/xlink">
	<desc>
			Created with Pixso.
	</desc>
	<defs>
		<clipPath id="clip5_16">
			<rect id="laravel-svgrepo-com" rx="-0.500000" width="49.000000" height="49.000000" transform="translate(0.500000 0.500000)" fill="white" fill-opacity="0"/>
		</clipPath>
	</defs>
	<g clip-path="url(#clip5_16)">
		<path id="path" d="M20.53 36.85L36.87 27.52L29.45 23.24L13.12 32.65L20.53 36.85ZM37.63 17.77L30.19 13.49L30.19 21.96L37.63 26.23L37.63 17.77ZM38.37 7.93L30.94 12.2L38.37 16.48L45.8 12.2L38.37 7.93ZM15.48 29.57L19.79 27.09L19.79 8.44L12.36 12.72L12.36 31.37L15.48 29.57ZM11.62 2.88L4.18 7.16L11.62 11.43L19.04 7.16L11.62 2.88ZM3.44 8.44L3.44 37.27L19.79 46.68L19.79 38.13L11.24 33.3C11.22 33.27 11.05 33.13 11.03 33.1C11.02 33.08 10.94 32.97 10.93 32.94C10.92 32.91 10.88 32.78 10.87 32.74L10.86 12.72L6.55 10.24L3.44 8.44ZM37.63 37.27L37.63 28.8L21.28 38.13L21.28 46.68L37.63 37.27ZM46.54 21.96L46.54 13.49L39.11 17.77L39.11 26.23L46.54 21.96ZM48 12.01C48.02 12.07 48.03 12.14 48.03 12.21L48.03 22.38C48.03 22.66 47.88 22.9 47.66 23.03L39.11 27.95L39.11 37.7C39.11 37.97 38.97 38.21 38.75 38.34L20.9 48.61L20.73 48.68C20.67 48.7 20.6 48.71 20.54 48.71C20.47 48.71 20.4 48.7 20.34 48.68C20.29 48.66 20.2 48.63 20.16 48.61L2.33 38.34C2.11 38.21 1.96 37.97 1.96 37.7L1.96 7.16C1.96 7.09 1.97 7.02 1.99 6.96C2 6.91 2.04 6.82 2.06 6.78L2.24 6.58L11.25 1.38C11.35 1.32 11.48 1.28 11.62 1.28C11.75 1.28 11.88 1.32 11.99 1.38L20.91 6.51C20.93 6.54 21.1 6.69 21.13 6.72C21.15 6.75 21.21 6.85 21.22 6.89C21.24 6.95 21.28 7.08 21.28 7.15L21.28 26.23L28.71 21.95L28.71 12.2C28.71 12.14 28.72 12.07 28.74 12C28.75 11.96 28.79 11.86 28.81 11.82C28.83 11.8 28.97 11.64 28.99 11.63L38 6.43C38.1 6.37 38.23 6.33 38.37 6.33C38.5 6.33 38.63 6.37 38.74 6.43L47.66 11.56C47.68 11.59 47.85 11.74 47.88 11.77C47.9 11.8 47.99 11.97 48 12.01Z" fill="#FFFFFF" fill-opacity="1.000000" fill-rule="nonzero"/>
	</g>
	<rect id="laravel-svgrepo-com" rx="-0.500000" width="49.000000" height="49.000000" transform="translate(0.500000 0.500000)" stroke="#FFFFFF" stroke-opacity="0" stroke-width="1.000000"/>
</svg>
